<svg xmlns="http://www.w3.org/2000/svg" width="69" height="68" viewBox="0 0 69 68"><defs><style>.a{fill:#666;}.b{fill:#fff;}</style></defs><ellipse class="a" cx="34.5" cy="34" rx="34.5" ry="34"/><g transform="translate(-1059.251 -140.083)"><path class="b" d="M1100.238,165.862h2.961v11.85h-2.961v-11.85Z" transform="translate(-7.689 -2.978)"/><path class="b" d="M1107.653,156.959h6.415v3.95h-6.415v-3.95Z" transform="translate(-10.17)"/><path class="b" d="M1118.016,165.862h-10.363v11.85a1.98,1.98,0,0,0,1.974,1.975h.494v11.85a1.98,1.98,0,0,0,1.974,1.975H1119a1.981,1.981,0,0,0,1.974-1.975v-9.381l-2.961-16.294Z" transform="translate(-10.17 -2.978)"/><path class="b" d="M1077.251,182.156v9.381a1.98,1.98,0,0,0,1.974,1.975h6.908a1.981,1.981,0,0,0,1.974-1.975v-11.85h.494a1.98,1.98,0,0,0,1.974-1.975v-11.85h-10.363l-2.961,16.294Z" transform="translate(0 -2.978)"/><path class="b" d="M1087.632,156.959h6.415v3.95h-6.415v-3.95Z" transform="translate(-3.472)"/></g></svg>