<svg xmlns="http://www.w3.org/2000/svg" width="69" height="68" viewBox="0 0 69 68"><defs><style>.a{fill:#666;}.b{fill:#fff;}</style></defs><ellipse class="a" cx="34.5" cy="34" rx="34.5" ry="34"/><g transform="translate(-1148.807 12.278)"><path class="b" d="M1198.375,41.243a4.018,4.018,0,0,0-1.54-3.081,20.982,20.982,0,0,0-7.5-3.659,21.954,21.954,0,0,0-6.351-.963,24.172,24.172,0,0,0-6.35.963,24.742,24.742,0,0,0-7.5,3.659,4.016,4.016,0,0,0-1.54,3.081v7.7h30.79v-7.7Z" transform="translate(0 -10.165)"/><path class="b" d="M1185.223,11.7c1.251-.736,4.33-3.114,4.33-3.114h0a2.452,2.452,0,0,1,1.327.534,8.345,8.345,0,0,1,2.3,2.441c.534.8.991,1.444,1.13,1.636h0l.053.067h0a7.14,7.14,0,0,0,.062-3.047c-.236-1.685-.428-2.186-1.506-3.09a3.3,3.3,0,0,0-2.526-.843,8.147,8.147,0,0,0-4.339-1.685,8.023,8.023,0,0,0-6.149,2.643,5.842,5.842,0,0,0-1.5,4.173c0,.515-.592,1.41-.178,1.41h.8c1.525-.043,4.638-.212,6.192-1.126Z" transform="translate(-3.686)"/><path class="b" d="M1194.086,16.543c-.024-.034-.553-.77-1.2-1.728a7.413,7.413,0,0,0-2.064-2.2,2.35,2.35,0,0,0-.525-.289c-.856.649-3.06,2.305-4.108,2.917-1.665.963-4.7,1.218-6.736,1.261a7.7,7.7,0,0,0,15.319.987Z" transform="translate(-4.169 -2.712)"/></g></svg>