<svg xmlns="http://www.w3.org/2000/svg" width="69" height="68" viewBox="0 0 69 68"><defs><style>.a{fill:#666;}.b{fill:#fff;}</style></defs><ellipse class="a" cx="34.5" cy="34" rx="34.5" ry="34"/><g transform="translate(-1100.278 -240.043)"><path class="b" d="M1135.311,259.375a1.069,1.069,0,0,0,0,1.549,1.068,1.068,0,0,0,1.548,0,3.909,3.909,0,0,0,0-5.477,1.6,1.6,0,0,1,0-2.323,1.095,1.095,0,0,0-1.548-1.549,3.907,3.907,0,0,0,0,5.476,1.708,1.708,0,0,1,0,2.323Z" transform="translate(-3.788)"/><path class="b" d="M1143.393,263.753a1.07,1.07,0,0,0,0,1.548,1.068,1.068,0,0,0,1.548,0,3.907,3.907,0,0,0,0-5.476,1.605,1.605,0,0,1,0-2.323,1.095,1.095,0,1,0-1.548-1.549,3.909,3.909,0,0,0,0,5.477,1.6,1.6,0,0,1,0,2.323Z" transform="translate(-5.844 -1.114)"/><path class="b" d="M1127.895,263.753a1.07,1.07,0,0,0,0,1.548,1.069,1.069,0,0,0,1.548,0,3.908,3.908,0,0,0,0-5.476,1.6,1.6,0,0,1,0-2.323,1.1,1.1,0,1,0-1.548-1.549,3.909,3.909,0,0,0,0,5.477,1.706,1.706,0,0,1,0,2.323Z" transform="translate(-1.901 -1.114)"/><path class="b" d="M1139.428,297.84a18.033,18.033,0,0,0,3.152-4.646,8.049,8.049,0,0,0,2.875.5,8.4,8.4,0,0,0,8.4-8.408,8.529,8.529,0,0,0-8.016-8.463V273.5H1119.3v4.425c0,8.463,2.543,15.876,6.413,19.913Zm6.358-17.646a5.088,5.088,0,0,1,4.755,5.089,5.157,5.157,0,0,1-5.141,5.089,6.934,6.934,0,0,1-1.548-.221,36.611,36.611,0,0,0,1.935-9.957Zm-20.953-1.715,2.765-2.765h2.764l2.764,2.765v8.3h-8.293v-8.3Z" transform="translate(0 -5.664)"/></g></svg>