<svg xmlns="http://www.w3.org/2000/svg" xmlns:xlink="http://www.w3.org/1999/xlink" width="38.562" height="62.503" viewBox="0 0 38.562 62.503"><defs><style>.a{fill:#a6192e;}.b{fill:#fff;stroke:#707070;}.c{clip-path:url(#a);}.d{stroke:none;}.e{fill:none;}</style><clipPath id="a"><path class="a" d="M0,45.057H38.562v-62.5H0Z" transform="translate(0 17.445)"/></clipPath></defs><g class="b" transform="translate(8 8.467)"><circle class="d" cx="10.5" cy="10.5" r="10.5"/><circle class="e" cx="10.5" cy="10.5" r="10"/></g><g transform="translate(0 17.445)"><g class="c" transform="translate(0 -17.445)"><g transform="translate(0 0.001)"><path class="a" d="M13.938,19.9A8.366,8.366,0,0,1,5.647,11.6a8.369,8.369,0,0,1,8.291-8.3,8.369,8.369,0,0,1,8.291,8.3A8.366,8.366,0,0,1,13.938,19.9m0-27.6A19.464,19.464,0,0,0-2.041.741,19.071,19.071,0,0,0-4,18.691L4.741,38l7.538,15.836a1.931,1.931,0,0,0,2.562.756,1.81,1.81,0,0,0,.756-.756L23.135,38l8.742-19.308A19.947,19.947,0,0,0,29.917.741,19.464,19.464,0,0,0,13.938-7.7" transform="translate(5.396 7.704)"/></g></g></g></svg>