<svg xmlns="http://www.w3.org/2000/svg" width="69" height="68" viewBox="0 0 69 68"><defs><style>.a{fill:#666;}.b{fill:#fff;}</style></defs><ellipse class="a" cx="34.5" cy="34" rx="34.5" ry="34"/><g transform="translate(-1301.322 -291.805)"><path class="b" d="M1351.54,312.455a21.627,21.627,0,0,1-14.256-6.98,1.931,1.931,0,0,0-2.724-.2,1.818,1.818,0,0,0-.2.2,21.631,21.631,0,0,1-14.256,6.98,1.966,1.966,0,0,0-1.781,1.972V319.4c0,10.817,6.876,20.713,16.423,26.836a1.99,1.99,0,0,0,2.153,0c9.547-6.125,16.423-16.019,16.423-26.836v-4.976a1.966,1.966,0,0,0-1.781-1.972Zm-1.567,6.948c0,8.608-5.125,17.293-13.711,23.235l-.44.305-.439-.305c-8.586-5.943-13.713-14.629-13.713-23.235v-3.738l.652-.1a24.858,24.858,0,0,0,12.977-6.289l.523-.482.524.482a24.857,24.857,0,0,0,12.977,6.289l.651.1V319.4Z" transform="translate(0)"/><path class="b" d="M1337.972,313.551a26.39,26.39,0,0,1-12.606,6.1v2.427c0,7.952,4.7,16.012,12.606,21.655,7.9-5.642,12.606-13.7,12.606-21.655v-2.427a26.394,26.394,0,0,1-12.606-6.1Zm-1.323,20.126-5.209-5.213,1.77-1.771,3.439,3.441,7.043-7.048,1.77,1.772-8.814,8.819Z" transform="translate(-2.15 -2.67)"/></g></svg>