<svg xmlns="http://www.w3.org/2000/svg" xmlns:xlink="http://www.w3.org/1999/xlink" width="1626.533" height="429.23" viewBox="0 0 1626.533 429.23"><defs><style>.a{fill:none;}.b{fill:#aab5bf;}.c{fill:#edeff1;}.d{clip-path:url(#a);}.e{clip-path:url(#b);}.f{clip-path:url(#c);}.g{clip-path:url(#d);}</style><clipPath id="a"><path class="a" d="M0,26.543H73.234V-15.176H0Z" transform="translate(0 15.176)"/></clipPath><clipPath id="b"><path class="a" d="M0,46.022H107.428v-61.2H0Z" transform="translate(0 15.176)"/></clipPath><clipPath id="c"><path class="a" d="M0,13.641H50.585V-15.176H0Z" transform="translate(0 15.176)"/></clipPath><clipPath id="d"><path class="b" d="M0,14.015H65.025v-32.53H0Z" transform="translate(0 18.515)"/></clipPath></defs><path class="c" d="M4098,2042.011S4356.134,1856,4620.065,1856s515.378,167.632,515.378,167.632,303.164,151.582,501.112-19.616,0,224.7,0,224.7H4098Z" transform="translate(-4098 -1799.483)"/><g transform="translate(787.001 56.719)"><g transform="translate(0 0)"><path class="b" d="M7.838,0-2.543,15.305l4.373-.549-7.1,10.934,6.01-1.64L-9.1,39.353,5.653,36.62V48.1h4.371V36.62l14.749,2.733-9.832-15.3,6.008,1.64-7.1-10.934,4.371.549Z" transform="translate(9.096)"/></g></g><g transform="translate(1429 205.719)"><g transform="translate(0 0)"><path class="b" d="M7.838,0-2.543,15.305l4.373-.549-7.1,10.934,6.01-1.64L-9.1,39.353,5.653,36.62V48.1h4.371V36.62l14.749,2.733-9.832-15.3,6.008,1.64-7.1-10.934,4.371.549Z" transform="translate(9.096)"/></g></g><g transform="translate(1466 181.719)"><g transform="translate(0 0)"><path class="b" d="M7.838,0-2.543,15.305l4.373-.549-7.1,10.934,6.01-1.64L-9.1,39.353,5.653,36.62V48.1h4.371V36.62l14.749,2.733-9.832-15.3,6.008,1.64-7.1-10.934,4.371.549Z" transform="translate(9.096)"/></g></g><g transform="translate(829.239 71.814)"><g transform="translate(0 0)"><path class="b" d="M7.838,0-2.543,15.305l4.373-.549-7.1,10.934,6.01-1.64L-9.1,39.353,5.653,36.62V48.1h4.371V36.62l14.749,2.733-9.832-15.3,6.008,1.64-7.1-10.934,4.371.549Z" transform="translate(9.096)"/></g></g><g transform="translate(686.201)"><g class="d" transform="translate(0 0)"><g transform="translate(0 0)"><path class="c" d="M40.014,13.212h-.869A13.06,13.06,0,0,0,33.672,2.607,13.2,13.2,0,0,0,21.766.954,15.7,15.7,0,0,0,4.214-7.133,15.622,15.622,0,0,0-7.777,7.995v.176a13.161,13.161,0,0,0-12.511,5.042A13.279,13.279,0,0,0-21.679,26.6a13.277,13.277,0,0,0,11.208,7.477v.088h50.4a10.477,10.477,0,0,0,.088-20.953" transform="translate(22.878 7.554)"/></g></g></g><g transform="translate(1392.006 65)"><g class="e" transform="translate(0 0)"><g transform="translate(0.001 0)"><path class="c" d="M69.38,22.908H68.106A19.158,19.158,0,0,0,60.077,7.351,19.357,19.357,0,0,0,42.612,4.927,22.925,22.925,0,0,0-.726,15.255v.258a19.306,19.306,0,0,0-18.352,7.4,19.479,19.479,0,0,0-2.04,19.639A19.477,19.477,0,0,0-4.678,53.516v.129H69.251a15.369,15.369,0,0,0,.129-30.736" transform="translate(22.878 7.554)"/></g></g></g><g transform="translate(331.006 6.314)"><g class="f" transform="translate(0 0)"><g transform="translate(0 0)"><path class="c" d="M20.564,6.79h-.6A9.021,9.021,0,0,0,16.183-.536,9.114,9.114,0,0,0,7.959-1.677,10.843,10.843,0,0,0-4.165-7.263,10.791,10.791,0,0,0-12.447,3.186v.122A9.091,9.091,0,0,0-21.089,6.79a9.172,9.172,0,0,0-.961,9.247A9.171,9.171,0,0,0-14.308,21.2v.061H20.5A7.237,7.237,0,0,0,20.564,6.79" transform="translate(22.878 7.554)"/></g></g></g><g transform="matrix(0.951, -0.309, 0.309, 0.951, 225.487, 102.782)"><g class="g" transform="translate(0 -18.515)"><g transform="translate(8.867 20.702)"><path class="b" d="M5.094,2.548A5.912,5.912,0,0,1-.819,8.462a5.912,5.912,0,0,1-5.91-5.914A5.912,5.912,0,0,1-.819-3.366,5.912,5.912,0,0,1,5.094,2.548" transform="translate(6.729 3.366)"/></g><g transform="translate(44.335 20.702)"><path class="b" d="M5.094,2.548A5.912,5.912,0,0,1-.819,8.462a5.912,5.912,0,0,1-5.91-5.914A5.912,5.912,0,0,1-.819-3.366,5.912,5.912,0,0,1,5.094,2.548" transform="translate(6.729 3.366)"/></g><g transform="translate(0 -0.001)"><path class="b" d="M11.143,5.1V-3.776H21.266a2.685,2.685,0,0,1,2.068.887L31.314,5.1Zm-2.955,0h-18.7l7.98-7.985a2.924,2.924,0,0,1,2.07-.887H8.187Zm34.728,0H36.784a2.68,2.68,0,0,1-2.07-.887L25.4-5.032a5.858,5.858,0,0,0-4.211-1.7H-.459a5.984,5.984,0,0,0-4.211,1.7l-9.163,9.242a2.961,2.961,0,0,0-.887,2.143v7.616a5.931,5.931,0,0,0,5.912,5.914h.738A8.108,8.108,0,0,1,.06,11.75a8.107,8.107,0,0,1,8.128,8.133H27.4a8.129,8.129,0,1,1,16.257,0H47.35a2.965,2.965,0,0,0,2.955-2.957V12.49A7.414,7.414,0,0,0,42.915,5.1" transform="translate(14.72 6.733)"/></g></g></g></svg>