<svg xmlns="http://www.w3.org/2000/svg" xmlns:xlink="http://www.w3.org/1999/xlink" width="92.893" height="96.488" viewBox="0 0 92.893 96.488"><defs><style>.a,.h,.j{fill:none;}.b{fill:#fff;}.c{clip-path:url(#a);}.d{mix-blend-mode:multiply;isolation:isolate;}.e{clip-path:url(#b);}.f,.l{fill:#d52329;}.g{clip-path:url(#c);}.h,.j{stroke:#d52329;}.h{stroke-width:2.2px;}.i{clip-path:url(#e);}.j{stroke-width:0.042px;}.k{fill:#4a5459;}.l{font-size:22px;font-family:BookAntiqua, Book Antiqua;}.m{fill:#a21929;}.n{fill:#2d323b;}</style><clipPath id="a"><path class="a" d="M0,46.509H92.893V-49.979H0Z" transform="translate(0 49.979)"/></clipPath><clipPath id="b"><rect class="a" width="49.624" height="79.925"/></clipPath><clipPath id="c"><rect class="a" width="67.319" height="41.446"/></clipPath><clipPath id="e"><path class="a" d="M21.781-9.386h22.2V-23.365h-22.2Z" transform="translate(-21.781 23.365)"/></clipPath></defs><g transform="translate(0 26.002)"><path class="b" d="M0,27.969v-.01L6.776-36.51H73.093L66.316,27.969Z" transform="translate(0 36.51)"/></g><g class="c"><g class="d" transform="translate(48.977 12.488)"><g class="e"><g transform="translate(17.375 13.513)"><path class="f" d="M0,31.081,14.873,17.719,10.585-33.4H6.834Z" transform="translate(0 33.4)"/></g></g></g><g class="d" transform="translate(6.56 -6.03)"><g class="g"><g transform="translate(19.499 15.638)"><path class="h" d="M0,11.51V-8.028a25.42,25.42,0,0,1,28.321,0V11.51" transform="translate(0 12.368)"/></g></g></g><g class="d" transform="translate(19.171 -13.514)"><g class="g"><g transform="translate(19.499 15.637)"><path class="h" d="M0,11.51V-8.028a25.42,25.42,0,0,1,28.321,0V11.51" transform="translate(0 12.368)"/></g></g></g></g><g class="i" transform="translate(42.05 51.38)"><g transform="translate(0.325 0.042)"><path class="f" d="M4.839,2.278,3.576-.794C3.14-1.861,2.488-2.035,1.333-2.035v-.413H11.9v.413H10.262c-1.351,0-1.809.326-2.156,1.154l-1.394,3.4-.871,2.2L3.1,11.444H2.03L-2.5-.141C-3.154-1.8-3.675-2.035-5.069-2.035H-5.2v-.413H1.333v.413H.07c-1.023,0-1.415.458-1.046,1.373L2.988,9.311,5.339,3.5,7.19-1.1c.239-.589.087-.936-.544-.936H5.731c-.566,0-.871.218-.608.805L5.7.116,4.839,2.278M7.227,3.745,9.565,9.311l3.853-10.1c.349-.894.066-1.2-1.523-1.241v-.413H16.4v.413c-1.33,0-1.633.261-2.288,1.981l-4.377,11.5H8.694L6.354,5.925Z" transform="translate(5.2 2.448)"/></g><g transform="translate(0.325 0.042)"><path class="j" d="M4.839,2.278,3.576-.794C3.14-1.861,2.488-2.035,1.333-2.035v-.413H11.9v.413H10.262c-1.351,0-1.809.326-2.156,1.154l-1.394,3.4-.871,2.2L3.1,11.444H2.03L-2.5-.141C-3.154-1.8-3.675-2.035-5.069-2.035H-5.2v-.413H1.333v.413H.07c-1.023,0-1.415.458-1.046,1.373L2.988,9.311,5.339,3.5,7.19-1.1c.239-.589.087-.936-.544-.936H5.731c-.566,0-.871.218-.608.805L5.7.116,4.839,2.278M7.227,3.745,9.565,9.311l3.853-10.1c.349-.894.066-1.2-1.523-1.241v-.413H16.4v.413c-1.33,0-1.633.261-2.288,1.981l-4.377,11.5H8.694L6.354,5.925Z" transform="translate(5.2 2.448)"/></g><g transform="translate(-0.855 17.165)"><path class="k" d="M1.284.14c.052-.125.019-.2-.118-.2h-.2C.848-.061.782-.015.84.111l.234.544Zm.322,2.7L.995,1.391.4,2.837H.174L-.8.346c-.141-.357-.253-.407-.554-.407H-1.38V-.15H-.168v.089H-.247c-.22,0-.305.1-.226.3L.381,2.379.886,1.128.506.205C.413-.025.273-.061.024-.061V-.15H1.944v.089c-.29,0-.388.07-.463.247l-.3.732.612,1.461L2.624.205C2.7.014,2.638-.052,2.3-.061V-.15h.969v.089c-.286,0-.351.056-.492.425l-.94,2.473Z" transform="translate(1.38 0.15)"/></g><g transform="translate(3.157 18.172)"><path class="k" d="M.619.287C.567-.018.379-.219.155-.219c-.154,0-.388.07-.5.506ZM-.356.408a1.857,1.857,0,0,0-.017.2.76.76,0,0,0,.71.815.741.741,0,0,0,.6-.305l.05.056a1.125,1.125,0,0,1-.834.483A.883.883,0,0,1-.665.694a.945.945,0,0,1,.905-1c.631,0,.618.454.772.608V.408Z" transform="translate(0.665 0.308)"/></g><g transform="translate(4.82 16.93)"><path class="k" d="M.339,1.339c0,.191.089.282.272.282H.69V1.71H-.364V1.621c.3,0,.388-.091.388-.315V-.956c0-.131-.014-.172-.145-.187l-.21-.023v-.079l.6-.193h.07Z" transform="translate(0.364 1.439)"/></g><g transform="translate(5.944 16.93)"><path class="k" d="M.339,1.339c0,.191.089.282.272.282H.69V1.71H-.364V1.621c.3,0,.388-.091.388-.315V-.956c0-.131-.014-.172-.145-.187l-.21-.023v-.079l.6-.193h.07Z" transform="translate(0.364 1.439)"/></g><g transform="translate(7.19 18.172)"><path class="k" d="M.036.69a.476.476,0,0,0,.444.44A.322.322,0,0,0,.814.822c0-.1-.023-.16-.151-.286C.332.2-.039.171-.039-.219a.539.539,0,0,1,.6-.523,1,1,0,0,1,.375.075l.01.425H.865A.4.4,0,0,0,.49-.63.271.271,0,0,0,.2-.367c0,.411.873.483.873,1.054A.548.548,0,0,1,.5,1.219a.584.584,0,0,1-.207-.033A.547.547,0,0,0,.164,1.16a.1.1,0,0,0-.081.056H.013L-.039.69Z" transform="translate(0.039 0.742)"/></g><g transform="translate(10.001 17.095)"><path class="k" d="M1.338.4A1.092,1.092,0,0,0,.271-.318,1.243,1.243,0,0,0-1,1.037,1.389,1.389,0,0,0,.323,2.506a1.241,1.241,0,0,0,1.143-.693h.089a3.142,3.142,0,0,1-.3.683c-.3-.042-.506.127-1.058.127A1.514,1.514,0,0,1-1.438,1.13,1.566,1.566,0,0,1,.242-.434a3.65,3.65,0,0,1,.988.187c.052,0,.075-.014.085-.029h.07L1.427.4Z" transform="translate(1.438 0.434)"/></g><g transform="translate(13.119 18.172)"><path class="k" d="M.519.891A.684.684,0,0,0,1.11.142c0-.535-.328-.988-.722-.988a.678.678,0,0,0-.595.722C-.207.442.116.891.519.891M.454-.958A.978.978,0,0,1,1.461.025.973.973,0,0,1,.467,1,.982.982,0,0,1-.558.034.983.983,0,0,1,.454-.958" transform="translate(0.558 0.958)"/></g><g transform="translate(15.085 16.93)"><path class="k" d="M.339,1.339c0,.191.089.282.272.282H.69V1.71H-.364V1.621c.3,0,.388-.091.388-.315V-.956c0-.131-.014-.172-.145-.187l-.21-.023v-.079l.6-.193h.07Z" transform="translate(0.364 1.439)"/></g><g transform="translate(16.209 16.93)"><path class="k" d="M.339,1.339c0,.191.089.282.272.282H.69V1.71H-.364V1.621c.3,0,.388-.091.388-.315V-.956c0-.131-.014-.172-.145-.187l-.21-.023v-.079l.6-.193h.07Z" transform="translate(0.364 1.439)"/></g><g transform="translate(17.258 18.172)"><path class="k" d="M.619.287C.567-.018.379-.219.155-.219c-.154,0-.388.07-.5.506ZM-.356.408a1.857,1.857,0,0,0-.017.2.76.76,0,0,0,.71.815.741.741,0,0,0,.6-.305l.05.056a1.125,1.125,0,0,1-.834.483A.883.883,0,0,1-.665.694a.945.945,0,0,1,.905-1c.631,0,.618.454.772.608V.408Z" transform="translate(0.665 0.308)"/></g><g transform="translate(19.025 18.172)"><path class="k" d="M.41.043c-.178,0-.454.1-.454.535,0,.276.139.645.5.645C.723,1.222.9,1,.9.674.9.273.7.043.41.043M.542,2.819c.4,0,.772-.261.772-.556,0-.174-.145-.263-.313-.276C.88,1.971.289,1.968.154,1.948c-.131.154-.305.22-.305.4,0,.22.309.467.693.467M1.605.388A4.467,4.467,0,0,1,1.136.332a.593.593,0,0,1,.079.3A.735.735,0,0,1,.4,1.311a.555.555,0,0,1-.216-.037c-.075.079-.286.131-.286.239s.2.164.67.168c.529,0,.712.029.851.168a.444.444,0,0,1,.141.328c0,.305-.411.772-1.278.772-.487,0-.72-.214-.72-.444,0-.272.284-.315.5-.575-.253-.025-.444-.183-.444-.334,0-.214.313-.224.477-.346A.62.62,0,0,1-.358.67.766.766,0,0,1,.466-.046.742.742,0,0,1,.991.141,5.406,5.406,0,0,0,1.605.095Z" transform="translate(0.441 0.046)"/></g><g transform="translate(21.126 18.172)"><path class="k" d="M.619.287C.567-.018.379-.219.155-.219c-.154,0-.388.07-.5.506ZM-.356.408a1.857,1.857,0,0,0-.017.2.76.76,0,0,0,.71.815.741.741,0,0,0,.6-.305l.05.056a1.125,1.125,0,0,1-.834.483A.883.883,0,0,1-.665.694a.945.945,0,0,1,.905-1c.631,0,.618.454.772.608V.408Z" transform="translate(0.665 0.308)"/></g></g><text class="l" transform="translate(13.594 65.271)"><tspan x="0" y="0">I</tspan></text><g class="c"><g transform="translate(24.034 50.203)"><path class="m" d="M3.888,1.588C.9-4.544-4.178-.864-4.178,2.568c0,5.151,8.066,11.527,8.066,11.527s8.066-6.377,8.066-11.527c0-3.433-5.077-7.112-8.066-.981" transform="translate(4.178 1.706)"/></g><g transform="translate(51.527 78.807)"><path class="n" d="M19.37,3.276C14.515,1.424,8.107-.132,1.831,1.131A5.94,5.94,0,0,1-1.926.468c-5.465-3.332-12.02-4.062-17.215-3.983a1.559,1.559,0,0,0-1.653,1.129A1.392,1.392,0,0,0-19.627-.757s.1,1.911.23,5.014,1.508,4.909,6.579,5.8c2.49.438,4.338.67,5.879-.384C-5,8.31-2.4,4.268-2.4,4.268A1.956,1.956,0,0,1-.542,3.6,1.955,1.955,0,0,1,.98,4.864S2.042,9.554,3.393,11.5c1.089,1.519,2.9,1.934,5.394,2.373,5.072.894,6.927-.293,8.166-3.2s1.923-4.587,1.923-4.587a1.391,1.391,0,0,0,1.653-1.131A1.527,1.527,0,0,0,19.37,3.276" transform="translate(20.816 3.52)"/></g></g></svg>