<svg xmlns="http://www.w3.org/2000/svg" xmlns:xlink="http://www.w3.org/1999/xlink" width="324.867" height="77.78" viewBox="0 0 324.867 77.78"><defs><style>.a{fill:none;}.b{fill:#a6192e;}.c{clip-path:url(#a);}.d{mix-blend-mode:multiply;isolation:isolate;}.e{clip-path:url(#b);}.f{fill:#d52329;}.g{clip-path:url(#d);}.h{fill:#fff;font-size:23px;font-family:Calibri-Bold, Calibri;font-weight:700;}</style><clipPath id="a"><path class="a" d="M0,24.974H324.866V-52.805H0Z" transform="translate(0 52.805)"/></clipPath><clipPath id="b"><rect class="a" width="43.404" height="28.009"/></clipPath><clipPath id="d"><rect class="a" width="43.403" height="28.009"/></clipPath></defs><g transform="translate(0 52.805)"><path class="b" d="M20.768,8.773h263.88V-52.805H20.768Z" transform="translate(9.822)"/><g transform="translate(277.522 -21.174)"><path class="b" d="M0,0V46.149H47.345L23.672,23.074,47.345,0H0Z"/></g><g class="c" transform="translate(0 -52.805)"><g class="d" transform="translate(264.264 51.244)"><g class="e"><g transform="translate(13.257 10.311)"><path class="f" d="M5.423,0h-16.89V16.225Z" transform="translate(11.467)"/></g></g></g></g><g transform="translate(0 -21.174)"><path class="b" d="M0,0H0L23.672,23.074,0,46.148H47.345V0Z"/></g><g class="c" transform="translate(0 -52.805)"><g class="d" transform="translate(17.199 51.244)"><g class="g"><g transform="translate(13.257 10.311)"><path class="f" d="M0,0H16.89V16.225Z"/></g></g></g></g></g><text class="h" transform="translate(60.467 16.144)"><tspan x="3.121" y="22">DESTINATION WELLS</tspan></text></svg>